<svg height='100px' width='100px'  fill="#000000" xmlns="http://www.w3.org/2000/svg" viewBox="0 0 64 64" x="0px" y="0px"><title>05 Rocket Launch</title><g data-name="05 Rocket Launch"><path d="M32,19a4,4,0,1,0,4,4A4,4,0,0,0,32,19Zm0,6a2,2,0,1,1,2-2A2,2,0,0,1,32,25Z"></path><path d="M32,17a3,3,0,1,0-3-3A3,3,0,0,0,32,17Zm0-4a1,1,0,1,1-1,1A1,1,0,0,1,32,13Z"></path><path d="M19,50a1,1,0,0,0-1,1v5a1,1,0,0,0,2,0V51A1,1,0,0,0,19,50Z"></path><path d="M24.107,55.006C24.1,55,23,54.671,23,52a1,1,0,0,0-2,0c0,4.629,2.774,4.981,2.893,4.994a1,1,0,1,0,.214-1.988Z"></path><path d="M16,51a1,1,0,0,0-1,1c0,2.187-.754,2.927-1.107,3.006a1,1,0,1,0,.214,1.988C14.226,56.981,17,56.629,17,52A1,1,0,0,0,16,51Z"></path><path d="M45,50a1,1,0,0,0-1,1v5a1,1,0,0,0,2,0V51A1,1,0,0,0,45,50Z"></path><path d="M50.107,55.006C50.1,55,49,54.671,49,52a1,1,0,0,0-2,0c0,4.629,2.774,4.981,2.893,4.994a1,1,0,1,0,.214-1.988Z"></path><path d="M42,51a1,1,0,0,0-1,1c0,2.187-.754,2.927-1.107,3.006a1,1,0,1,0,.214,1.988C40.226,56.981,43,56.629,43,52A1,1,0,0,0,42,51Z"></path><path d="M32,54a1,1,0,0,0-1,1v5a1,1,0,0,0,2,0V55A1,1,0,0,0,32,54Z"></path><path d="M37.107,59.006C37.1,59,36,58.671,36,56a1,1,0,0,0-2,0c0,4.629,2.774,4.981,2.893,4.994a1,1,0,1,0,.214-1.988Z"></path><path d="M29,55a1,1,0,0,0-1,1c0,2.187-.754,2.927-1.107,3.006a1,1,0,1,0,.214,1.988C27.226,60.981,30,60.629,30,56A1,1,0,0,0,29,55Z"></path><path d="M49,47V43c0-6.174,2.1-13.4-3.375-17.781a1,1,0,0,0-1.332.074,9.474,9.474,0,0,0-2.484,5.657,9.624,9.624,0,0,1-2.165-.671A39.2,39.2,0,0,0,40,25C40,5.9,32.637,3.161,32.323,3.054a.993.993,0,0,0-.646,0C31.363,3.161,24,5.9,24,25a36.884,36.884,0,0,0,.385,5.28,9.667,9.667,0,0,1-2.19.674,9.381,9.381,0,0,0-2.488-5.661,1,1,0,0,0-1.332-.074C12.9,29.6,15,36.911,15,43v4a1,1,0,0,0,1,1h5a1,1,0,0,0,1-1V43c0-1.652.124-3.222.267-5.688a14.853,14.853,0,0,1,3.643-.584A33.79,33.79,0,0,0,28.845,43.2c.08,1.248.155,2.557.155,3.8v4a1,1,0,0,0,1,1h4a1,1,0,0,0,1-1V47c0-1.175.07-2.4.145-3.679a32.291,32.291,0,0,0,3.02-6.593,14.835,14.835,0,0,1,3.569.576q.039.669.08,1.339C41.905,40.1,42,41.61,42,43v4a1,1,0,0,0,1,1h5A1,1,0,0,0,49,47ZM45.1,27.438c3.386,3.505,2.084,9.169,1.919,14.562H43.986C43.863,37.322,42.775,30.775,45.1,27.438Zm-26.194,0c2.344,3.346,1.241,9.64,1.11,14.564H16.983C16.819,36.663,15.517,30.941,18.9,27.436ZM20,46H17V44h3Zm2.36-10.78c.024-.857.017-1.664,0-2.186,0-.026,0-.052,0-.077a11.878,11.878,0,0,0,2.362-.641c.015.08.536,2.308.57,2.434A17.03,17.03,0,0,0,22.36,35.22ZM32,31.582C34.182,34.925,33.154,40.8,33.015,46H30.986C30.855,40.926,29.8,34.948,32,31.582ZM33,50H31V48h2ZM32,29a1,1,0,0,0-.707.293c-2.264,2.264-2.684,5.684-2.674,8.872,0,.043,0,.086,0,.13a33.45,33.45,0,0,1-2.15-7.589A34.886,34.886,0,0,1,26,25C26,9.892,30.7,5.926,32,5.122,33.31,5.938,38,9.915,38,25a36.941,36.941,0,0,1-.436,5.707v.007a34.133,34.133,0,0,1-2.185,7.765C35.407,35.988,34.375,29,32,29Zm6.757,5.751c.206-.777.4-1.586.558-2.433a11.857,11.857,0,0,0,2.327.633c-.027.74-.023,1.5,0,2.262A17.144,17.144,0,0,0,38.757,34.751ZM47,46H44V44h3Z"></path></g></svg>